<?xml version="1.0" encoding="UTF-8" standalone="no"?>
<svg
   xmlns:dc="http://purl.org/dc/elements/1.1/"
   xmlns:cc="http://creativecommons.org/ns#"
   xmlns:rdf="http://www.w3.org/1999/02/22-rdf-syntax-ns#"
   xmlns:svg="http://www.w3.org/2000/svg"
   xmlns="http://www.w3.org/2000/svg"
   xmlns:xlink="http://www.w3.org/1999/xlink"
   xmlns:sodipodi="http://sodipodi.sourceforge.net/DTD/sodipodi-0.dtd"
   xmlns:inkscape="http://www.inkscape.org/namespaces/inkscape"
   aria-hidden="true"
   focusable="false"
   data-prefix="fab"
   data-icon="confluence"
   class="svg-inline--fa fa-confluence fa-w-16"
   role="img"
   viewBox="0 0 512 512"
   version="1.1"
   id="svg4"
   sodipodi:docname="avatar.svg"
   inkscape:version="0.92.5 (2060ec1f9f, 2020-04-08)">
  <metadata
     id="metadata10">
    <rdf:RDF>
      <cc:Work
         rdf:about="">
        <dc:format>image/svg+xml</dc:format>
        <dc:type
           rdf:resource="http://purl.org/dc/dcmitype/StillImage" />
        <dc:title></dc:title>
      </cc:Work>
    </rdf:RDF>
  </metadata>
  <defs
     id="defs8">
    <inkscape:path-effect
       effect="roughen"
       id="path-effect1955"
       is_visible="true"
       method="segments"
       max_segment_size="10"
       segments="46"
       displace_x="12.3;2623167708"
       displace_y="10;975087795"
       global_randomize="1.4;1"
       handles="along"
       shift_nodes="true"
       fixed_displacement="false"
       spray_tool_friendly="true" />
    <linearGradient
       inkscape:collect="always"
       id="linearGradient1876">
      <stop
         style="stop-color:#006a54;stop-opacity:1"
         offset="0"
         id="stop1872" />
      <stop
         style="stop-color:#00c59b;stop-opacity:0"
         offset="1"
         id="stop1874" />
    </linearGradient>
    <clipPath
       clipPathUnits="userSpaceOnUse"
       id="clipPath1002">
      <ellipse
         style="fill:#333333;fill-opacity:1;stroke:none;stroke-width:1.88976383;stroke-miterlimit:4;stroke-dasharray:none;stroke-opacity:1"
         id="ellipse1004"
         cx="-205.56433"
         cy="176.04039"
         rx="90.509666"
         ry="122.72498" />
    </clipPath>
    <radialGradient
       inkscape:collect="always"
       xlink:href="#linearGradient1876"
       id="radialGradient1890"
       cx="-84.610168"
       cy="245.69492"
       fx="-84.610168"
       fy="245.69492"
       r="159.45763"
       gradientTransform="matrix(1.3877552,0,0,1.5476191,363.65551,-121.53028)"
       gradientUnits="userSpaceOnUse" />
  </defs>
  <sodipodi:namedview
     pagecolor="#ffffff"
     bordercolor="#666666"
     borderopacity="1"
     objecttolerance="10"
     gridtolerance="10"
     guidetolerance="10"
     inkscape:pageopacity="0"
     inkscape:pageshadow="2"
     inkscape:window-width="1920"
     inkscape:window-height="1016"
     id="namedview6"
     showgrid="false"
     inkscape:zoom="0.921875"
     inkscape:cx="181.30906"
     inkscape:cy="289.64009"
     inkscape:window-x="0"
     inkscape:window-y="27"
     inkscape:window-maximized="1"
     inkscape:current-layer="svg4" />
  <g
     id="bg"
     transform="matrix(1.0129495,0,0,1.0129495,-0.32307848,-0.3882011)">
    <ellipse
       ry="246.77966"
       rx="221.28813"
       cy="258.71188"
       cx="246.23729"
       id="path1870"
       style="fill:url(#radialGradient1890);fill-opacity:1;stroke:none;stroke-width:2.43280435;stroke-miterlimit:4;stroke-dasharray:none;stroke-opacity:1" />
    <g
       id="body">
      <rect
         style="fill:#58bdaa;fill-opacity:1;stroke:none;stroke-width:0.94488192;stroke-miterlimit:4;stroke-dasharray:none;stroke-opacity:1"
         id="rect1634"
         width="342.09586"
         height="6.1362481"
         x="84.952072"
         y="500.26984"
         ry="2.6846087" />
      <rect
         style="fill:#f6a783;fill-opacity:1;stroke:none;stroke-width:2.17322636;stroke-miterlimit:4;stroke-dasharray:none;stroke-opacity:1"
         id="rect1558"
         width="44.168373"
         height="101.85619"
         x="266.8092"
         y="158.32024"
         ry="21.148108"
         inkscape:transform-center-x="12.076129"
         inkscape:transform-center-y="25.602501"
         transform="matrix(0.89432529,0.44741735,-0.50582527,0.86263596,0,0)" />
      <rect
         transform="matrix(-0.89432529,0.44741735,0.50582527,0.86263596,0,0)"
         inkscape:transform-center-y="25.60251"
         inkscape:transform-center-x="-12.076134"
         ry="21.148108"
         y="387.65009"
         x="-175.34647"
         height="101.85619"
         width="44.168373"
         id="rect1560"
         style="fill:#f6a783;fill-opacity:1;stroke:none;stroke-width:2.17322636;stroke-miterlimit:4;stroke-dasharray:none;stroke-opacity:1" />
      <path
         style="fill:#333333;fill-opacity:1;stroke:none;stroke-width:2.1547091;stroke-miterlimit:4;stroke-dasharray:none;stroke-opacity:1"
         d="m 192.25817,233.38328 c -22.37317,0.46715 -38.33773,10.92202 -43.26462,38.57899 8.26824,23.01709 21.37533,29.14156 35.83772,30.53473 l 4.20993,-6.18567 2.39741,27.70653 6.96416,27.84691 114.21,-0.81704 7.95732,-27.29748 0.93437,-27.70262 c 21.39499,24.98876 44.00008,-15.85363 40.52266,-25.70903 -3.42102,-7.95908 -7.37032,-28.48219 -44.2655,-36.94492 -38.96455,-7.04766 -79.07527,-11.26105 -125.44386,0 v 0.0395 z"
         id="rect1087"
         inkscape:connector-curvature="0"
         sodipodi:nodetypes="cccccccccccccc" />
      <path
         style="fill:#6c5d53;fill-opacity:1;stroke:none;stroke-width:2.0129559;stroke-miterlimit:4;stroke-dasharray:none;stroke-opacity:1"
         d="m 106.35682,390.14912 c -7.13738,-0.0882 -12.260322,4.94361 -18.788513,14.56106 -11.349108,16.7197 -11.734238,31.66705 4.029822,50.99176 27.158701,22.50897 49.386251,38.67904 61.337831,41.636 17.19401,4.25399 34.46151,6.15861 44.40923,-8.49655 l 4.4688,-6.58253 c 9.94773,-14.65516 6.20808,-39.14586 -9.31416,-47.67762 L 119.7237,394.58048 c -5.33578,-2.9328 -9.62825,-4.38516 -13.36688,-4.43136 z m 298.77723,7.64565 c -3.50453,0.0236 -7.5844,1.17527 -12.61376,3.48683 l -75.45782,34.68106 c -16.09395,7.39699 -21.58094,31.55852 -12.70947,46.88912 l 3.98614,6.8842 c 8.87149,15.33062 26.23049,14.66922 43.68524,11.65883 12.13281,-2.09253 35.46265,-16.62781 64.16516,-37.13182 17.1089,-18.14486 17.79603,-33.07913 7.67477,-50.56944 -6.09914,-10.5398 -11.02032,-15.9507 -18.73026,-15.89878 z"
         id="rect1552"
         inkscape:connector-curvature="0" />
      <rect
         style="fill:#f59d73;fill-opacity:1;stroke:none;stroke-width:2.17322659;stroke-miterlimit:4;stroke-dasharray:none;stroke-opacity:1"
         id="rect1564"
         width="44.168377"
         height="101.85619"
         x="-521.40564"
         y="-162.10495"
         ry="21.148108"
         inkscape:transform-center-x="24.456645"
         inkscape:transform-center-y="14.25459"
         transform="matrix(-0.52341721,-0.85207654,-0.81543304,0.57885141,0,0)" />
      <rect
         transform="matrix(0.52341721,-0.85207654,0.81543304,0.57885141,0,0)"
         inkscape:transform-center-y="14.254591"
         inkscape:transform-center-x="-24.456644"
         ry="21.148108"
         y="273.55774"
         x="-217.66043"
         height="101.85619"
         width="44.168377"
         id="rect1562"
         style="fill:#f59d73;fill-opacity:1;stroke:none;stroke-width:2.17322659;stroke-miterlimit:4;stroke-dasharray:none;stroke-opacity:1" />
      <g
         id="g1550"
         transform="matrix(1.0651891,0,0,1.0651891,418.72368,148.48935)">
        <rect
           ry="9.2043695"
           y="307.20273"
           x="-268.55389"
           height="27.613119"
           width="226.27417"
           id="rect1121"
           style="fill:#999999;fill-opacity:1;stroke:none;stroke-width:1.88976383;stroke-miterlimit:4;stroke-dasharray:none;stroke-opacity:1" />
        <rect
           ry="8.8208466"
           y="307.20273"
           x="-266.92682"
           height="17.641693"
           width="223.3978"
           id="rect1123"
           style="fill:#b3b3b3;fill-opacity:1;stroke:none;stroke-width:1.90702963;stroke-miterlimit:4;stroke-dasharray:none;stroke-opacity:1" />
        <rect
           style="fill:#cccccc;fill-opacity:1;stroke:none;stroke-width:1.88976383;stroke-miterlimit:4;stroke-dasharray:none;stroke-opacity:1"
           id="rect1116"
           width="209.39949"
           height="161.84355"
           x="-256.95538"
           y="163.00085"
           ry="9.2043734" />
        <path
           inkscape:connector-curvature="0"
           id="rect1109"
           d="m -255.42203,287.76352 a 84.373421,105.46677 67.002297 0 0 0.14843,0.11524 84.373421,105.46677 67.002297 0 0 7.6875,4.68359 84.373421,105.46677 67.002297 0 0 8.32422,3.91992 84.373421,105.46677 67.002297 0 0 8.88086,3.11329 84.373421,105.46677 67.002297 0 0 9.34571,2.27929 84.373421,105.46677 67.002297 0 0 9.7207,1.41992 84.373421,105.46677 67.002297 0 0 9.99414,0.54493 84.373421,105.46677 67.002297 0 0 10.17187,-0.33203 84.373421,105.46677 67.002297 0 0 10.2461,-1.20704 84.373421,105.46677 67.002297 0 0 10.21875,-2.06836 84.373421,105.46677 67.002297 0 0 10.08789,-2.91406 84.373421,105.46677 67.002297 0 0 9.85547,-3.72461 84.373421,105.46677 67.002297 0 0 6.78515,-3.10937 84.373421,105.46677 67.002297 0 0 9.23633,-5.02344 84.373421,105.46677 67.002297 0 0 8.74805,-5.7207 84.373421,105.46677 67.002297 0 0 8.16992,-6.35547 84.373421,105.46677 67.002297 0 0 7.51172,-6.93164 84.373421,105.46677 67.002297 0 0 6.7793,-7.43555 84.373421,105.46677 67.002297 0 0 5.976567,-7.86523 84.373421,105.46677 67.002297 0 0 5.11523,-8.21875 84.373421,105.46677 67.002297 0 0 4.20508,-8.48828 84.373421,105.46677 67.002297 0 0 3.25,-8.67383 84.373421,105.46677 67.002297 0 0 2.26172,-8.77149 84.373421,105.46677 67.002297 0 0 1.25391,-8.78125 84.373421,105.46677 67.002297 0 0 0.23242,-8.70508 84.373421,105.46677 67.002297 0 0 -0.79102,-8.54101 84.373421,105.46677 67.002297 0 0 -1.80859,-8.29297 84.373421,105.46677 67.002297 0 0 -2.80469,-7.95898 84.373421,105.46677 67.002297 0 0 -2.57617,-5.39063 84.373421,105.46677 67.002297 0 0 -2.95117,-4.79492 H -246.21695 c -5.09923,0 -9.20508,4.10585 -9.20508,9.20508 z"
           style="fill:#f2f2f2;fill-opacity:1;stroke:none;stroke-width:1.88976383;stroke-miterlimit:4;stroke-dasharray:none;stroke-opacity:1" />
        <rect
           ry="6.237288"
           y="237.68535"
           x="-172.32344"
           height="12.474576"
           width="40.135593"
           id="rect1125"
           style="fill:#b3b3b3;fill-opacity:1;stroke:none;stroke-width:1.88976383;stroke-miterlimit:4;stroke-dasharray:none;stroke-opacity:1" />
        <rect
           style="fill:#cccccc;fill-opacity:1;stroke:none;stroke-width:1.79496121;stroke-miterlimit:4;stroke-dasharray:none;stroke-opacity:1"
           id="rect1127"
           width="38.122135"
           height="11.848772"
           x="-170.30998"
           y="238.31116"
           ry="5.924386" />
        <path
           style="fill:#ffd42a;stroke-width:1.69544435"
           inkscape:connector-curvature="0"
           d="m -124.12162,205.2117 38.065447,-14.37885 14.378859,38.06545 -38.065466,14.37886 z m 45.896751,15.78586 c -0.933596,-1.6319 -2.615648,-2.6639 -6.484208,-2.7576 -1.374042,-0.10629 -2.815233,0.003 -3.533154,-0.73149 -0.342029,-0.46888 -0.472085,-0.74599 -0.495329,-1.09061 -0.149124,-1.11446 0.947983,-1.88049 2.00746,-1.95446 0.690457,-0.0433 1.44118,0.2168 2.087202,0.8427 1.234982,-1.69166 1.234982,-1.69166 2.10952,-2.83576 -0.679861,-0.50439 -1.000835,-0.71118 -1.396733,-0.88605 -1.421603,-0.74073 -2.967991,-0.80905 -5.114386,0.0579 l -1.064859,0.56354 c -0.973315,0.66671 -1.779057,1.62352 -2.11004,2.61849 -1.034653,2.7306 0.835181,6.10212 3.581121,6.75037 2.776079,0.79999 6.076056,-0.0405 7.056254,1.33085 1.081627,1.71191 -0.454234,2.9717 -2.273438,3.41421 -1.394126,0.2004 -2.349512,-0.17453 -3.583953,-1.06751 l -2.272817,2.76333 c 0.620645,0.63549 1.126524,0.8232 1.949135,1.27366 3.811792,1.74265 10.657235,-1.00626 10.296305,-5.70895 -0.0079,-0.16012 -0.04175,-1.26196 -0.871187,-2.66134 z m -18.588207,-6.10912 -3.565454,1.34682 c 1.161092,3.07378 2.299137,6.13452 3.462028,9.21306 0.738119,1.95403 1.51564,3.71013 1.405343,4.3825 -0.11058,1.29049 -1.511488,1.66018 -2.19619,1.69953 -0.745521,-0.0736 -1.22608,-0.38144 -1.828683,-0.85882 -0.162834,-0.12878 -0.291896,-0.24496 -0.318864,-0.23477 l -2.220554,2.87771 c 0.8612,0.81648 1.89172,1.40952 3.008818,1.61281 1.661628,0.29665 3.582858,-0.13004 5.329136,-1.27902 1.106484,-0.82755 1.898483,-1.96948 2.026992,-3.32294 0.251715,-1.78058 -0.602569,-3.52398 -1.374979,-5.5448 -1.211535,-3.26498 -2.461784,-6.51713 -3.701957,-9.80028 z"
           id="path1186" />
        <path
           style="fill:#ff7f2a;stroke-width:1.40678394"
           inkscape:connector-curvature="0"
           d="m -114.46897,217.61366 -14.74168,-14.74028 c -0.8497,-0.84829 -2.22554,-0.84829 -3.07805,0 l -3.05413,3.05975 3.88273,3.88273 c 0.90737,-0.30246 1.93995,-0.0985 2.65741,0.62039 0.7259,0.72449 0.92567,1.76973 0.61617,2.67289 l 3.73924,3.74204 c 0.90737,-0.31371 1.9512,-0.10973 2.67288,0.61195 1.0143,1.01289 1.0143,2.65038 0,3.66327 -1.01147,1.01148 -2.64616,1.01148 -3.65763,0 -0.75826,-0.76107 -0.94818,-1.88087 -0.56834,-2.80794 l -3.50149,-3.4832 v 9.17927 c 0.24759,0.12098 0.48112,0.28557 0.68651,0.48956 1.00304,1.01429 1.00304,2.64897 0,3.65764 -1.01148,1.01429 -2.65741,1.01429 -3.6703,0 -1.01148,-1.01148 -1.01148,-2.64335 0,-3.65483 0.25604,-0.25322 0.54443,-0.44454 0.85111,-0.57115 v -9.2693 c -0.30528,-0.12802 -0.59648,-0.31231 -0.84407,-0.56412 -0.7667,-0.7667 -0.95099,-1.88791 -0.55709,-2.82623 l -3.8152,-3.83349 -10.10915,10.10212 c -0.84407,0.8511 -0.84407,2.22834 0,3.07945 l 14.7431,14.73887 c 0.8497,0.8497 2.22553,0.8497 3.07523,0 l 14.67275,-14.67275 c 0.85111,-0.84829 0.85111,-2.22554 0,-3.07664"
           id="path1235" />
        <path
           style="fill:#ff6600;stroke-width:1.24858761"
           inkscape:connector-curvature="0"
           d="m -91.984463,173.68973 h 26.220343 l -2.384803,26.92329 -10.754084,3.04281 -10.692906,-3.04406 z m 8.77882,12.17373 -0.28967,-3.39366 12.559543,0.004 0.287175,-3.27379 -16.451398,-0.004 0.87152,10.00119 h 11.394613 l -0.40704,4.27766 -3.63339,1.00386 -3.689583,-1.01135 -0.23473,-2.63452 h -3.25757 l 0.41204,5.20785 6.769843,1.81046 6.716153,-1.80172 0.928949,-10.18472 h -11.976455 z"
           id="path1284" />
        <path
           style="fill:#abc837;stroke-width:1.31638598"
           inkscape:connector-curvature="0"
           d="m -210.70606,229.16111 -1.03667,-0.29696 c 0.94413,-2.33989 1.08385,-5.55913 -1.02346,-9.83465 0,0 -0.88239,7.00164 -5.71835,7.90125 l -6.32772,-1.81475 a 1.541488,1.541488 0 0 0 -0.73196,-0.0326 l -0.1295,0.0301 a 1.5572846,1.5572846 0 0 0 -0.64513,0.35266 l -4.88009,4.41964 c -4.73672,1.3266 -8.61677,-4.56952 -8.61677,-4.56952 -0.007,4.76693 1.54063,7.59399 3.41863,9.27797 l -0.79945,0.7237 a 1.4914653,1.4914653 45 0 0 -0.46079,1.44235 l 4.37647,18.70216 c 0.0605,0.2603 0.25659,0.47015 0.5233,0.54196 a 0.76350386,0.76350386 0 0 0 0.74881,-0.17404 l 6.46918,-5.83366 c 0.40641,-0.37962 0.58178,-0.92178 0.46108,-1.44108 l -2.03151,-8.74082 c -0.12099,-0.52058 0.0526,-1.07043 0.4607,-1.43692 l 2.75179,-2.49378 a 1.5664993,1.5664993 0 0 1 0.71061,-0.37329 c 0.25643,-0.0596 0.53675,-0.0572 0.79598,0.0231 l 3.56951,1.0246 c 0.52792,0.14895 0.9262,0.56589 1.04719,1.08647 l 2.03151,8.74082 c 0.1207,0.5193 0.52193,0.9315 1.05064,1.08972 l 8.37625,2.38334 a 0.77666771,0.77666771 0 0 0 0.75522,-0.17553 0.74244168,0.74244168 0 0 0 0.22809,-0.71659 l -4.32387,-18.71438 a 1.4861997,1.4861997 0 0 0 -1.04966,-1.0913 z"
           id="path1484" />
        <path
           style="fill:#333333;stroke-width:3.04816747"
           inkscape:connector-curvature="0"
           d="m -111.39198,232.89823 c -0.47247,0 -0.96018,0.0244 -1.46008,0.064 -12.88461,1.01504 -9.46761,14.65255 -9.66269,19.19737 -0.23471,3.33164 -0.91445,5.95611 -3.20363,9.2085 -2.69762,3.20363 -6.48345,8.38246 -8.27882,13.78078 -0.84739,2.53606 -1.24975,5.1331 -0.87482,7.58688 -0.11888,0.10371 -0.23166,0.20728 -0.33835,0.4115 -0.79252,0.81691 -1.36863,1.83195 -2.01788,2.55741 -0.60659,0.60659 -1.47836,0.81386 -2.4294,1.21928 -0.95407,0.41454 -2.00569,0.81994 -2.63362,2.07579 -0.27433,0.57306 -0.41454,1.19794 -0.40235,1.83195 0,0.60659 0.0823,1.22231 0.16766,1.63382 0.17678,1.21622 0.35357,2.22211 0.11887,2.95673 -0.75594,2.07274 -0.85043,3.4932 -0.32005,4.52653 0.53039,1.01808 1.63077,1.42958 2.86223,1.83195 2.47206,0.60962 5.82201,0.41149 8.45866,1.82584 2.8226,1.4235 5.68789,2.04532 7.97401,1.43264 1.60334,-0.35054 2.95673,-1.4113 3.68218,-2.88052 1.78929,-0.009 3.74925,-0.81996 6.88887,-1.01809 2.13067,-0.17678 4.79781,0.81387 7.85817,0.60659 0.0763,0.4115 0.19204,0.60658 0.34749,1.01809 v 0.009 c 1.19184,2.37147 3.39261,3.45052 5.74275,3.26458 2.35014,-0.18288 4.852689,-1.63382 6.879719,-3.9809 1.923393,-2.33185 5.130057,-3.30422 7.248542,-4.58139 1.060754,-0.60659 1.917296,-1.4296 1.978254,-2.60009 0.07015,-1.21928 -0.606577,-2.47512 -2.176394,-4.19733 v -0.29568 -0.009 c -0.518183,-0.60963 -0.762039,-1.63077 -1.03027,-2.82261 -0.259097,-1.22231 -0.554777,-2.39586 -1.499701,-3.18838 v 0 c -0.179849,-0.1646 -0.374929,-0.20423 -0.573056,-0.4115 -0.170704,-0.11582 -0.368832,-0.18898 -0.579153,-0.19508 1.313755,-3.89556 0.804717,-7.77283 -0.527329,-11.25993 -1.624678,-4.29792 -4.465571,-8.04107 -6.629772,-10.61677 -2.42633,-3.06341 -4.8039,-5.96526 -4.75819,-10.26927 0.0823,-6.55967 0.72242,-18.69441 -10.8027,-18.7127 z m 1.61247,10.37901 h 0.0397 c 0.64925,0 1.20707,0.18898 1.78012,0.60354 0.5822,0.4115 1.0059,1.01199 1.33816,1.62466 0.32005,0.78948 0.4816,1.39912 0.50599,2.20688 0,-0.061 0.0305,-0.12194 0.0305,-0.17983 v 0.317 c 0,-0.0213 0,-0.0457 0,-0.064 v -0.0732 c 0,0.74069 -0.16156,1.47226 -0.45722,2.152 -0.14327,0.38103 -0.36274,0.73157 -0.64926,1.02114 -0.0884,-0.0487 -0.17375,-0.0915 -0.26824,-0.12803 -0.32006,-0.13717 -0.60659,-0.19508 -0.86873,-0.4054 -0.21643,-0.0853 -0.44199,-0.15546 -0.66756,-0.20119 0.14937,-0.17983 0.442,-0.4054 0.55478,-0.60352 0.16155,-0.39018 0.24994,-0.80472 0.26823,-1.22537 v -0.0579 c 0,-0.4115 -0.0549,-0.82606 -0.18593,-1.21927 -0.13717,-0.41151 -0.30786,-0.61269 -0.55782,-1.01809 -0.25605,-0.20117 -0.50905,-0.40236 -0.81386,-0.40236 h -0.0487 c -0.28348,0 -0.53648,0.0915 -0.79862,0.40236 -0.28957,0.28653 -0.50599,0.63097 -0.62487,1.01809 -0.16156,0.38711 -0.25605,0.80472 -0.27434,1.21927 v 0.0579 c 0,0.27128 0.0305,0.54562 0.061,0.81385 -0.5883,-0.20422 -1.3351,-0.41149 -1.85024,-0.61572 -0.0305,-0.19813 -0.0487,-0.40236 -0.0549,-0.60659 v -0.061 c -0.0305,-0.80472 0.13107,-1.60334 0.45722,-2.34405 0.24994,-0.66754 0.70717,-1.23755 1.31071,-1.62466 0.52123,-0.39322 1.15526,-0.60659 1.81061,-0.60659 z m -9.02867,0.17985 h 0.10969 c 0.43284,0 0.82301,0.1463 1.21622,0.41149 0.44503,0.39321 0.80472,0.87787 1.04857,1.4174 0.27434,0.60659 0.42979,1.22232 0.46637,2.03312 v 0.0128 c 0.0305,0.40846 0.0305,0.61269 0,0.81081 v 0.24386 c -0.0915,0.0213 -0.17069,0.0548 -0.253,0.0732 -0.46332,0.16766 -0.83519,0.41151 -1.19792,0.60964 0.0366,-0.27129 0.0397,-0.54562 0,-0.81386 v -0.0457 c -0.0366,-0.40541 -0.11888,-0.60658 -0.24995,-1.01503 -0.0945,-0.31093 -0.26825,-0.5883 -0.50599,-0.81387 -0.14937,-0.13717 -0.35054,-0.20727 -0.55783,-0.19509 h -0.064 c -0.21642,0.0182 -0.39626,0.125 -0.56696,0.40237 -0.19508,0.23471 -0.32006,0.52123 -0.36578,0.823 -0.0823,0.32921 -0.10664,0.66755 -0.0702,1.00895 v 0.0427 c 0.0366,0.41151 0.11276,0.61268 0.24691,1.01808 0.13715,0.40847 0.29566,0.60964 0.50294,0.81692 0.0335,0.0274 0.064,0.0548 0.10357,0.0732 -0.21337,0.17375 -0.35664,0.21338 -0.53647,0.41456 -0.11276,0.0853 -0.24386,0.18289 -0.39931,0.20727 -0.31702,-0.38102 -0.59744,-0.79252 -0.83825,-1.22536 -0.29262,-0.64012 -0.44503,-1.33509 -0.47247,-2.03312 -0.0518,-0.68889 0.0335,-1.37778 0.24386,-2.03618 0.16765,-0.60049 0.46332,-1.15526 0.86262,-1.63077 0.39018,-0.40541 0.79253,-0.60963 1.27414,-0.60963 z m 4.17903,5.20017 c 1.00895,0 2.23127,0.19813 3.70354,1.21621 0.89311,0.60964 1.59418,0.81996 3.20971,1.42654 v 0 c 0.77728,0.41456 1.23451,0.81082 1.45702,1.21623 v -0.39932 c 0.22252,0.44808 0.23776,0.96933 0.0487,1.43264 -0.37493,0.94798 -1.57286,1.96302 -3.24325,2.56961 v 0.006 c -0.81691,0.4115 -1.52714,1.01504 -2.36234,1.41739 -0.84129,0.41151 -1.79232,0.89006 -3.08474,0.81386 -0.46332,0.0244 -0.92969,-0.0457 -1.36558,-0.20422 -0.33529,-0.1829 -0.66449,-0.38408 -0.98151,-0.60354 -0.59439,-0.4115 -1.10649,-1.01199 -1.86548,-1.41739 v -0.0153 h -0.0305 c -1.21926,-0.74986 -1.87767,-1.56066 -2.09104,-2.16725 -0.21033,-0.81691 0,-1.42958 0.58829,-1.8289 0.68279,-0.4115 1.15831,-0.82606 1.47226,-1.02419 0.31702,-0.22556 0.43589,-0.31091 0.53649,-0.3993 v 0 -0.009 c 0.51514,-0.61573 1.329,-1.4296 2.55741,-1.83195 0.42369,-0.1097 0.89616,-0.19813 1.42044,-0.19813 z m 8.53183,6.53222 c 1.09429,4.31925 3.64866,10.59237 5.29161,13.63446 0.87178,1.62771 2.60619,5.0569 3.35908,9.21765 0.47552,-0.0153 1.00286,0.0548 1.56372,0.19507 1.969109,-5.09348 -1.66431,-10.56798 -3.31946,-12.08902 -0.67364,-0.61268 -0.70718,-1.02114 -0.37493,-1.02114 1.79537,1.62773 4.16076,4.79172 5.017291,8.4038 0.39322,1.63077 0.484663,3.36517 0.06403,5.09044 0.204237,0.0853 0.411511,0.18593 0.624881,0.20422 3.145706,1.62773 4.307061,2.85919 3.749247,4.68504 v -0.13107 c -0.185946,-0.009 -0.365783,0 -0.551717,0 h -0.04566 c 0.460275,-1.42349 -0.554765,-2.51474 -3.246294,-3.73096 -2.789078,-1.21926 -5.017288,-1.02418 -5.398318,1.41739 -0.0305,0.13108 -0.0366,0.20119 -0.0518,0.41151 -0.20728,0.0702 -0.42369,0.16155 -0.63707,0.19508 -1.31071,0.81692 -2.01789,2.03923 -2.4172,3.61818 -0.39626,1.62468 -0.51819,3.52368 -0.62488,5.69703 v 0.009 c -0.064,1.01808 -0.52123,2.55435 -0.97236,4.11806 -4.57225,3.26765 -10.91244,4.68809 -16.30464,1.01809 -0.33835,-0.58829 -0.74985,-1.14002 -1.22537,-1.62467 -0.22556,-0.38102 -0.51209,-0.72242 -0.83825,-1.01808 0.55477,0 1.03029,-0.0884 1.41741,-0.20423 0.44198,-0.20424 0.78338,-0.57305 0.95712,-1.01809 0.3292,-0.81386 0,-2.12458 -1.05163,-3.54502 -1.0516,-1.4235 -2.83783,-3.03292 -5.45011,-4.63626 -1.92034,-1.21622 -3.0055,-2.65191 -3.50539,-4.25525 -0.50295,-1.62771 -0.4359,-3.30725 -0.0458,-5.01423 0.74679,-3.26154 2.66104,-6.43164 3.88337,-8.42209 0.32615,-0.19812 0.11275,0.4115 -1.24365,2.96892 -1.20709,2.28918 -3.47797,7.61128 -0.37188,11.74763 0.11581,-3.01463 0.78642,-5.98964 1.97217,-8.76653 1.71915,-3.89555 5.31295,-10.68077 5.59642,-16.05774 0.14632,0.10969 0.66145,0.41151 0.88092,0.61573 0.6645,0.4054 1.15831,1.01504 1.79842,1.41739 0.64317,0.61269 1.45398,1.02114 2.6702,1.02114 0.11888,0.009 0.22861,0.0182 0.33835,0.0182 1.25279,0 2.22211,-0.40845 3.03597,-0.81691 0.88396,-0.40845 1.58809,-1.01809 2.25564,-1.21927 h 0.0305 c 1.42349,-0.41149 2.54826,-1.22536 3.18533,-2.13371 z m 6.66329,27.30548 c 0.11276,1.83195 1.04553,3.79496 2.68848,4.19733 1.79232,0.40845 4.371081,-1.01504 5.459272,-2.33186 l 0.643159,-0.0274 c 0.960179,-0.0244 1.7588,0.0305 2.581808,0.81385 v 0.009 c 0.634014,0.60659 0.929681,1.61858 1.191828,2.6702 0.259097,1.22231 0.469419,2.37757 1.2467,3.24934 1.48141,1.60639 1.966073,2.76165 1.938636,3.47491 v -0.0182 0.0548 -0.0366 c -0.04579,0.79862 -0.563911,1.20708 -1.517992,1.81366 -1.920345,1.22233 -5.322101,2.1703 -7.489337,4.78563 -1.883775,2.24649 -4.179044,3.47185 -6.206074,3.63036 -2.02399,0.16156 -3.77058,-0.60963 -4.79781,-2.73725 l -0.0305,-0.009 c -0.64011,-1.22231 -0.36578,-3.12437 0.17069,-5.1514 0.53649,-2.03617 1.30463,-4.09978 1.41131,-5.78542 0.11276,-2.17639 0.23166,-4.0693 0.5944,-5.52937 0.36577,-1.41741 0.93882,-2.4294 1.95386,-2.99941 l 0.13717,-0.0671 z m -32.96593,0.14937 h 0.0305 c 0.16155,0 0.32006,0.0152 0.47857,0.0427 1.14611,0.16765 2.15201,1.01504 3.11827,2.29222 l 2.77384,5.07215 v 0.009 c 0.7407,1.62468 2.29831,3.24324 3.62427,4.9929 1.3229,1.8228 2.34708,3.44748 2.22211,4.78562 v 0.0182 c -0.17374,2.26784 -1.46007,3.4993 -3.42919,3.94433 -1.96606,0.4115 -4.63322,0.006 -7.30036,-1.41436 -2.95062,-1.63381 -6.45602,-1.42958 -8.70861,-1.835 -1.12477,-0.20117 -1.86244,-0.61267 -2.20383,-1.22231 -0.33835,-0.60657 -0.34445,-1.83195 0.37493,-3.74924 v -0.009 -0.009 c 0.35663,-1.01809 0.0915,-2.29526 -0.0823,-3.41089 -0.16766,-1.22233 -0.25301,-2.16115 0.13106,-2.86528 0.48771,-1.01809 1.20708,-1.21622 2.10019,-1.62468 0.89921,-0.4115 1.95388,-0.61572 2.79212,-1.42958 v 0 -0.009 c 0.78033,-0.81692 1.35643,-1.83195 2.03617,-2.55437 0.57916,-0.61268 1.15831,-1.02418 2.02094,-1.02418 z m 21.82183,-27.65908 c -1.32595,0.61268 -2.88051,1.63076 -4.53568,1.63076 -1.6521,0 -2.95671,-0.81385 -3.8986,-1.42044 -0.47246,-0.40846 -0.85349,-0.81691 -1.14001,-1.02113 -0.49991,-0.40845 -0.43894,-1.01809 -0.22557,-1.01809 0.33225,0.0487 0.39322,0.4115 0.60659,0.61267 0.29262,0.20119 0.65536,0.60659 1.10039,1.01506 0.88701,0.60962 2.07276,1.42349 3.55417,1.42349 1.47835,0 3.20971,-0.81387 4.26133,-1.42046 0.5944,-0.4115 1.35643,-1.01809 1.97521,-1.42349 0.47551,-0.41759 0.45417,-0.81691 0.85044,-0.81691 0.39321,0.0487 0.10357,0.40846 -0.44808,1.01504 -0.55172,0.41151 -1.40521,1.02114 -2.10324,1.42655 v -0.003 z m -3.29811,-4.8283 v -0.0671 c -0.0305,-0.0579 0.0397,-0.12802 0.0884,-0.15241 0.22557,-0.13107 0.54867,-0.0823 0.79253,0.0128 0.19203,0 0.4877,0.20422 0.45722,0.41151 -0.0305,0.14935 -0.25909,0.20117 -0.41151,0.20117 -0.16764,0 -0.28042,-0.13107 -0.42979,-0.20727 -0.15849,-0.0548 -0.44503,-0.0244 -0.49684,-0.19814 z m -1.67955,0 c -0.061,0.1768 -0.34444,0.14936 -0.50599,0.20119 -0.14327,0.0762 -0.26215,0.20727 -0.42369,0.20727 -0.15546,0 -0.39932,-0.0579 -0.41761,-0.20727 -0.0305,-0.20119 0.26824,-0.40542 0.45723,-0.40542 0.2469,-0.0945 0.56086,-0.14326 0.78947,-0.0152 0.0579,0.0274 0.1097,0.0915 0.0915,0.15242 v 0.064 0 z"
           id="path1528" />
      </g>
      <path
         style="fill:#4d4d4d;stroke-width:0.04825273"
         d="m 298.13738,283.78166 c 0.49588,0.77342 0.92914,1.53471 1.20279,2.14231 0.96051,2.13698 1.2898,4.37693 0.98325,6.68889 -0.0787,0.59352 -0.39207,2.02912 -0.56444,2.58615 -0.16202,0.5236 -0.65253,1.81694 -0.86065,2.26935 -0.0986,0.2142 -0.18364,0.43263 -0.18915,0.48533 -0.008,0.0744 0.36492,0.67645 1.66671,2.6926 1.33836,2.0729 1.37143,2.14885 1.43478,2.34458 0.18163,0.56051 0.1953,1.22231 0.0368,1.77199 -0.0613,0.21296 -0.56489,1.10908 -1.789,3.18409 -1.57329,2.6669 -1.72167,2.90135 -1.93924,3.06529 -0.38915,0.29318 -0.85969,0.33505 -1.29694,0.11519 l -0.23591,-0.11857 -1.56076,-2.36531 c -1.64902,-2.5082 -1.91828,-2.89948 -2.17359,-3.15863 -1.61968,-1.64401 -3.69965,-2.16923 -5.8757,-1.48375 l -0.45347,0.1428 -2.99307,1.90273 -1.95806,1.32229 -0.27822,0.0245 c -0.3096,0.0274 -0.58597,-0.0403 -0.85753,-0.21004 -0.13447,-0.0839 -0.22278,-0.18508 -0.34456,-0.39449 -0.15962,-0.27656 -0.17091,-0.34494 -0.52179,-3.51166 -0.19689,-1.77656 -0.34748,-3.37411 -0.33465,-3.54996 0.0429,-0.58824 0.30952,-1.24546 0.70358,-1.73469 0.0984,-0.12199 -0.29271,0.0179 1.77229,-1.33996 l 2.67972,-1.76203 0.01,-0.32225 c 0.0573,-1.88937 0.15802,-2.86034 0.42556,-4.09943 0.36144,-1.674 1.01919,-3.26306 1.84713,-4.46284 1.11988,-1.62281 2.12224,-2.54692 4.26422,-3.93122 1.4196,-0.91744 1.8909,-1.17972 2.93667,-1.63433 0.98762,-0.42921 1.24463,-0.42522 1.71104,0.0265 0.72518,0.70238 1.72608,2.0251 2.55267,3.31407 z m -1.27057,0.96248 c -0.2168,-0.33966 -0.45635,-0.69236 -0.72259,-1.06415 -0.70235,-0.98123 -1.36005,-1.78403 -1.48046,-1.80728 -0.25349,-0.0486 -2.56746,1.25171 -3.74178,2.10311 -1.51337,1.09727 -2.37215,2.00506 -3.22138,3.40525 -0.63632,1.04921 -0.97729,1.92156 -1.30621,3.34183 -0.52138,2.25111 -0.51181,4.62555 0.038,9.41748 0.12945,1.12806 0.25192,2.09959 0.27207,2.15891 0.0442,0.12982 0.004,0.1302 0.67185,-0.007 1.96381,-0.4021 4.1637,0.1113 5.75233,1.34242 0.17006,0.13179 0.29019,0.1919 0.34184,0.17112 0.0858,-0.0341 2.27247,-3.66489 2.83426,-4.70507 2.01083,-3.72321 2.73848,-6.3923 2.48529,-9.11711 -0.0857,-0.92267 -0.21156,-1.51416 -0.50226,-2.36171 -0.32808,-0.9565 -0.77097,-1.85929 -1.42107,-2.87842 z m -1.36928,1.30057 c 0.13887,0.21453 0.25091,0.45033 0.33089,0.70468 0.19184,0.61173 0.21267,1.01634 0.0835,1.62503 -0.081,0.38142 -0.17611,0.65195 -0.31143,0.88519 -0.33407,0.5759 -0.49823,0.75033 -1.02894,1.09408 -0.55341,0.35851 -0.78976,0.44288 -1.40301,0.50525 -0.96604,0.0972 -1.96541,-0.27571 -2.59729,-0.96926 -1.37072,-1.50438 -0.98464,-3.90439 0.78486,-4.87848 1.45365,-0.80082 3.29277,-0.27765 4.14129,1.03354 z m -1.39063,0.90357 c -0.26159,-0.40318 -0.50546,-0.57595 -0.9367,-0.66334 -0.51502,-0.10434 -1.01902,0.0507 -1.37521,0.42302 -0.39035,0.408 -0.52576,1.00461 -0.3466,1.52758 0.47046,1.3736 2.37668,1.35722 2.84748,-0.0245 0.14954,-0.43868 0.0907,-0.83159 -0.18892,-1.26277 z m 5.82469,15.95634 c -0.15557,-0.24126 -0.3732,-0.57492 -0.67822,-1.04165 -1.33756,-2.04687 -1.36084,-2.07949 -1.44527,-2.03522 -0.0471,0.0249 -0.78436,1.22465 -1.63811,2.66647 l -1.55229,2.62148 1.45687,2.27849 c 1.2362,1.93322 1.15225,1.78728 1.24522,1.82239 0.10544,0.0398 0.16433,-0.0508 1.5425,-2.37765 1.54792,-2.61329 1.58147,-2.68524 1.47732,-3.16916 -0.0324,-0.1508 0.059,-0.0416 -0.40755,-0.76541 z m -8.69543,-10.63308 c 0.0945,0.14617 0.17116,0.30662 0.22539,0.48002 0.13071,0.41665 0.14479,0.69226 0.0568,1.10687 -0.0554,0.25977 -0.11991,0.44408 -0.21217,0.60295 -0.22755,0.39227 -0.33931,0.51112 -0.70081,0.74528 -0.37695,0.24417 -0.53778,0.30192 -0.95567,0.34408 -0.658,0.0662 -1.33879,-0.18782 -1.76917,-0.66024 -0.93365,-1.02471 -0.67068,-2.65945 0.53467,-3.32293 0.9903,-0.54522 2.2429,-0.18912 2.82088,0.704 z m -0.94725,0.61557 c -0.17823,-0.27461 -0.34428,-0.3924 -0.63802,-0.45191 -0.3509,-0.0706 -0.69406,0.0346 -0.93668,0.28819 -0.26591,0.27785 -0.35819,0.68422 -0.23613,1.04044 0.32043,0.93563 1.61884,0.92454 1.93952,-0.0167 0.1018,-0.29884 0.0618,-0.56642 -0.12865,-0.8601 z m 2.62831,13.63245 c 0.49273,0.75549 0.6373,1.13137 0.74129,1.93382 0.22137,1.69994 -0.49836,3.48073 -2.10235,5.20199 -0.90934,0.97584 -1.55532,1.50192 -3.17137,2.5827 l -1.29356,0.86507 -0.53324,-0.82563 c -0.73128,-1.13233 -1.31261,-2.20414 -1.70461,-3.14214 -1.29601,-3.10154 -1.09939,-5.8107 0.54518,-7.51188 0.42301,-0.43758 1.23168,-0.9356 1.83892,-1.13258 1.70514,-0.55308 3.55811,-0.15627 4.88758,1.0467 0.32559,0.29459 0.42152,0.41348 0.79217,0.98187 z m -0.89338,1.80265 c -0.13771,0.72049 -0.54489,1.45239 -1.21076,2.16695 -0.53654,0.57578 -0.91763,0.88614 -1.87115,1.52387 l -0.76325,0.51052 -0.31471,-0.48716 c -0.43153,-0.66808 -0.77445,-1.30051 -1.00574,-1.85398 -0.54053,-1.2936 -0.64046,-2.47118 -0.31017,-3.40511 -0.46185,0.43119 -0.77894,0.99249 -0.92018,1.65504 -0.29375,1.37791 0.18286,3.33871 1.31723,5.42003 0.36374,0.6675 0.56107,0.98158 0.62302,0.99528 0.0656,0.014 0.71604,-0.41663 1.22035,-0.80816 1.128,-0.87566 2.02702,-1.83141 2.6118,-2.77651 0.67358,-1.08862 0.86574,-1.99479 0.62355,-2.94071 z m -1.19848,-1.53259 c -0.17748,-0.27418 -0.22281,-0.32772 -0.38511,-0.45537 -0.13574,-0.10688 -0.26898,-0.19375 -0.40176,-0.26233 -0.19629,-0.0845 -0.39336,-0.14502 -0.5939,-0.18232 -0.19619,-0.0207 -0.39936,-0.006 -0.61708,0.0446 -0.80418,0.18518 -1.35136,0.71815 -1.51226,1.47314 -0.1733,0.813 0.10798,1.96993 0.77728,3.19798 0.21457,0.39387 0.3311,0.57907 0.36744,0.58727 0.0387,0.008 0.42258,-0.24562 0.71996,-0.47695 0.66561,-0.5166 1.19599,-1.08058 1.54104,-1.63823 0.39889,-0.64464 0.51182,-1.18083 0.36649,-1.74115 -0.0539,-0.20796 -0.0851,-0.273 -0.26233,-0.54669 z m -6.40993,-9.84635 c -0.0636,-0.0732 -0.16847,-0.16994 -2.19235,1.3005 l -1.09295,0.79404 -0.13306,0.2386 c -0.0732,0.13123 -0.14802,0.32167 -0.16617,0.42325 -0.0182,0.10159 0.10379,1.42101 0.27105,2.93204 0.16724,1.511 0.31551,2.76495 0.32946,2.78654 0.0722,0.11195 -0.73268,0.5597 1.47281,-0.86479 l 2.27141,-1.46713 -0.34792,-3.0345 c -0.19132,-1.66896 -0.3768,-3.06781 -0.41221,-3.10852 z"
         id="path1783"
         inkscape:connector-curvature="0" />
    </g>
  </g>
  <path
     style="fill:#e67a6b;fill-opacity:1;stroke:none;stroke-width:2.04825783;stroke-miterlimit:4;stroke-dasharray:none;stroke-opacity:1"
     d="m 176.37527,124.53696 a 27.859833,25.800907 3.0957331 0 0 -18.85826,31.89605 27.859833,25.800907 3.0957331 0 0 34.58272,17.7365 z m 160.90862,0.75971 -15.72447,49.63255 a 25.800907,27.859833 86.904267 0 0 34.58273,-17.7365 25.800907,27.859833 86.904267 0 0 -18.85826,-31.89605 z"
     id="ears"
     inkscape:connector-curvature="0" />
  <path
     style="fill:#f6a783;fill-opacity:1;stroke:none;stroke-width:2.06892538;stroke-miterlimit:4;stroke-dasharray:none;stroke-opacity:1"
     d="m 350.03161,143.98629 c -12.48588,66.48261 -39.01567,121.69794 -89.3778,117.77137 -49.3116,-3.84465 -73.08399,-56.09681 -84.98733,-118.89569 -14.08983,-74.334346 27.05299,-116.417328 84.98733,-116.647074 71.6159,-0.284002 102.2629,49.16318 89.3778,117.771394 z"
     id="path1010"
     inkscape:connector-curvature="0"
     sodipodi:nodetypes="sssss" />
  <path
     style="fill:#1a1a1a;fill-opacity:1;stroke:none;stroke-width:1.50418949;stroke-miterlimit:4;stroke-dasharray:none;stroke-opacity:1"
     d="m 207.78463,112.00765 c -2.58755,0 -4.67105,2.08152 -4.67105,4.66907 0,2.58755 2.0835,4.67104 4.67105,4.67104 h 39.18056 c 2.58755,0 4.67104,-2.08349 4.67104,-4.67104 0,-2.58755 -2.08349,-4.66907 -4.67104,-4.66907 z m 77.03954,1.2009 c -2.58755,0 -4.66906,2.0835 -4.66906,4.67104 0,2.58755 2.08151,4.66906 4.66906,4.66906 h 39.18255 c 2.58755,0 4.66907,-2.08151 4.66907,-4.66906 0,-2.58754 -2.08152,-4.67104 -4.66907,-4.67104 z"
     id="eyebrows"
     inkscape:connector-curvature="0" />
  <path
     style="fill:#241c1c;fill-opacity:1;stroke:none;stroke-width:3.12373209;stroke-miterlimit:4;stroke-dasharray:none;stroke-opacity:1"
     d="m 230.23372,130.80373 a 6.8542781,9.2290863 0 0 0 -6.85324,9.23005 6.8542781,9.2290863 0 0 0 6.85324,9.23005 6.8542781,9.2290863 0 0 0 6.85521,-9.23005 6.8542781,9.2290863 0 0 0 -6.85521,-9.23005 z m 73.77121,1.22222 a 6.8542781,9.2290863 0 0 0 -6.85522,9.2279 6.8542781,9.2290863 0 0 0 6.85522,9.23006 6.8542781,9.2290863 0 0 0 6.85323,-9.23006 6.8542781,9.2290863 0 0 0 -6.85323,-9.2279 z"
     id="eyes"
     inkscape:connector-curvature="0"
     inkscape:transform-center-y="-5.4387418"
     inkscape:transform-center-x="1.2667056e-06" />
  <path
     style="fill:#f69483;fill-opacity:1;stroke:none;stroke-width:2.00523305;stroke-miterlimit:4;stroke-dasharray:none;stroke-opacity:1"
     d="m 215.30063,161.43642 a 18.991938,18.991938 0 0 0 -18.9928,18.9928 18.991938,18.991938 0 0 0 18.9928,18.99281 18.991938,18.991938 0 0 0 18.99082,-18.99281 18.991938,18.991938 0 0 0 -18.99082,-18.9928 z m 102.25447,4.26745 a 18.991938,18.991938 0 0 0 -18.9928,18.9928 18.991938,18.991938 0 0 0 18.9928,18.99083 18.991938,18.991938 0 0 0 18.99083,-18.99083 18.991938,18.991938 0 0 0 -18.99083,-18.9928 z"
     id="cheeks"
     inkscape:connector-curvature="0"
     inkscape:label="#cheek" />
  <path
     style="fill:#1a1a1a;stroke:none;stroke-width:1.06947827px;stroke-linecap:butt;stroke-linejoin:miter;stroke-opacity:1"
     d="m 259.55584,3.4617982 -42.00179,26.3881248 -31.86438,13.362229 -12.61242,36.664022 -3.34352,35.182196 c -1.32216,12.26412 1.30728,23.05929 4.14082,38.01132 11.90094,62.79889 35.6694,115.05228 84.97104,118.89693 37.28715,2.90773 61.62563,-28.02615 77.29279,-72.26761 5.48952,-15.50147 12.64104,-33.99884 15.15467,-51.3696 2.7582,-19.06093 3.62404,-19.01475 2.99928,-24.03381 l -4.00036,-57.194064 c 0,0 -35.3211,-38.102648 -41.52894,-38.897656 C 302.55519,27.408875 259.55584,3.4617983 259.55584,3.4617982 Z M 219.19217,59.207652 c 0,0 5.98469,9.001164 9.53202,7.411151 3.54733,-1.590012 19.58237,-5.041007 19.58237,-5.041007 l -11.3759,26.251615 h 12.41456 l 32.81205,-23.851795 36.36132,7.949279 3.54731,-7.153955 25.5097,59.62752 c -11.34401,-1.66633 -22.62011,-2.11401 -33.72409,-2.59965 -16.20197,-0.31738 -26.37428,1.83993 -26.37428,1.83993 0,-10e-6 -6.88636,1.78891 -12.11582,3.54137 -4.45256,1.49206 -4.78223,1.54947 -7.35774,1.48183 -2.5755,-0.0677 -5.65305,-0.63258 -8.87319,-1.81223 -5.17477,-1.95286 -12.00306,-4.0063 -12.00306,-4.00629 0,0 -10.10292,-2.55005 -26.30503,-2.85683 -11.112,0.0577 -22.39472,0.0713 -33.78147,1.29981 l -8.37662,2.55216 c 1.62582,-12.81717 4.61565,-26.706647 4.61565,-26.706647 l 16.40108,-30.772305 z m 0.88039,66.641008 c 1.46117,-0.0183 2.9178,-0.009 4.36637,0.0257 5.79426,0.13865 11.44661,0.66572 16.59695,1.29388 6.68185,0.95386 14.46334,6.79603 12.30377,12.76474 l -3.77086,11.64299 c -3.06681,9.4717 -14.29465,10.94516 -21.32932,10.72698 l -16.90755,-0.52428 c -9.62961,-0.29869 -13.01845,-6.39161 -13.15449,-12.58273 l -0.25126,-11.5223 c -0.13561,-6.17135 1.53484,-9.42994 9.05126,-10.76457 4.29604,-0.69287 8.71165,-1.00535 13.09513,-1.06043 z m 90.02985,1.67571 c 5.79506,0.0847 11.72442,0.56347 17.42194,1.70738 7.47273,1.62337 9.04844,4.94225 8.73075,11.10485 l -0.59352,11.50648 c -0.31873,6.18234 -3.88359,12.14317 -13.51655,12.07032 l -16.91547,-0.1286 c -7.03712,-0.0529 -18.21544,-1.95565 -21.00089,-11.5401 l -3.42265,-11.78345 c -1.98216,-6.04851 5.96753,-11.58601 12.67374,-12.28202 5.16593,-0.42943 10.82759,-0.73942 16.62265,-0.65486 z m -132.30268,5.04695 9.05324,0.22356 c 0,0 3.33731,2.83277 5.42878,6.08758 3.16431,8.68567 0.90269,17.26289 7.92751,22.21566 3.42554,2.3882 8.83957,3.34946 8.83957,3.34946 9.24934,0.41807 21.86734,1.23106 29.20341,0.36402 7.33608,-0.86699 11.89791,-5.55683 13.77176,-7.7178 1.87382,-2.16098 6.86709,-13.94785 6.86709,-13.94784 1.6862,-3.09223 4.20476,-5.21308 8.55863,-5.19533 v 0.002 c 4.47645,0.0883 6.05225,2.32259 7.67033,5.52571 -10e-6,0 4.64462,11.97113 6.45359,14.20306 1.80898,2.23191 6.22806,7.09699 13.53435,8.24604 7.30631,1.14906 19.94107,0.82329 29.19748,0.76169 0,0 5.44045,-0.75426 8.93453,-3.00918 7.16703,-4.67938 5.15949,-13.34025 8.57841,-21.89909 1.20106,-1.74275 2.87332,-2.77841 4.15072,-3.37321 l -4.03597,35.18022 c 0,0 -12.70799,13.03517 -17.24388,19.95629 -4.5359,6.9211 -10.03453,21.08201 -10.03453,21.08201 -10e-6,0 -8.08932,-8.90476 -13.16835,-12.92896 -5.07902,-4.02419 -23.83003,-10.40053 -23.83003,-10.40053 l -20.37967,-0.56187 c 0,0 -26.5708,5.48964 -32.29568,10.39856 -5.72489,4.90889 -5.01727,10.96241 -5.01727,10.96241 0,0 -4.69661,-24.09371 -11.28687,-29.23111 -6.59023,-5.13741 -10.90472,1.72909 -17.55647,-3.09227 -6.65175,-4.82139 -11.28542,-27.23902 -13.17032,-38.225 -0.38108,-2.22111 -0.37838,-5.38213 -0.15036,-8.97607 z"
     id="path1040"
     inkscape:connector-curvature="0" />
  <path
     style="fill:#f6a783;fill-opacity:1;stroke:#f69483;stroke-width:2.17497706;stroke-miterlimit:4;stroke-dasharray:none;stroke-opacity:1"
     d="m 284.61079,176.89371 c -0.0804,16.12461 -10.42226,18.98196 -17.75223,18.70401 -5.61895,-1.49457 -14.71606,-4.02121 -14.63564,-20.14581 0.0804,-16.12461 7.59687,-38.52457 14.92686,-38.24658 7.33,0.27797 17.54141,23.56377 17.46101,39.68838 z"
     id="nose"
     inkscape:connector-curvature="0"
     sodipodi:nodetypes="scscs"
     inkscape:transform-center-x="-0.78396868"
     inkscape:transform-center-y="19.966454" />
  <path
     style="fill:#fefefc;fill-opacity:1;stroke:none;stroke-width:2.04825783;stroke-miterlimit:4;stroke-dasharray:none;stroke-opacity:1"
     d="m 239.39817,206.13894 c -1.81986,0.0651 -2.28026,2.14471 -2.17369,3.04285 1.51467,12.76431 13.51417,22.7059 28.09273,22.7063 14.35896,-4e-4 26.21597,-9.64475 28.01716,-22.13146 0.15621,-1.08298 -0.004,-3.18313 -2.23549,-3.17132 -15.46884,1.27979 -32.39136,1.38281 -51.70071,-0.44637 z"
     id="mouth"
     inkscape:connector-curvature="0"
     sodipodi:nodetypes="cscscc" />
</svg>
