<?xml version="1.0" encoding="UTF-8" standalone="no"?>
<svg
   xmlns:dc="http://purl.org/dc/elements/1.1/"
   xmlns:cc="http://creativecommons.org/ns#"
   xmlns:rdf="http://www.w3.org/1999/02/22-rdf-syntax-ns#"
   xmlns:svg="http://www.w3.org/2000/svg"
   xmlns="http://www.w3.org/2000/svg"
   xmlns:sodipodi="http://sodipodi.sourceforge.net/DTD/sodipodi-0.dtd"
   xmlns:inkscape="http://www.inkscape.org/namespaces/inkscape"
   aria-hidden="true"
   focusable="false"
   data-prefix="fab"
   data-icon="confluence"
   class="svg-inline--fa fa-confluence fa-w-16"
   role="img"
   viewBox="0 0 512 512"
   version="1.1"
   id="svg4"
   sodipodi:docname="confluence.svg"
   inkscape:version="0.92.5 (2060ec1f9f, 2020-04-08)">
  <metadata
     id="metadata10">
    <rdf:RDF>
      <cc:Work
         rdf:about="">
        <dc:format>image/svg+xml</dc:format>
        <dc:type
           rdf:resource="http://purl.org/dc/dcmitype/StillImage" />
        <dc:title></dc:title>
      </cc:Work>
    </rdf:RDF>
  </metadata>
  <defs
     id="defs8" />
  <sodipodi:namedview
     pagecolor="#ffffff"
     bordercolor="#666666"
     borderopacity="1"
     objecttolerance="10"
     gridtolerance="10"
     guidetolerance="10"
     inkscape:pageopacity="0"
     inkscape:pageshadow="2"
     inkscape:window-width="1920"
     inkscape:window-height="1016"
     id="namedview6"
     showgrid="false"
     inkscape:zoom="0.65186406"
     inkscape:cx="-23.347923"
     inkscape:cy="311.56021"
     inkscape:window-x="0"
     inkscape:window-y="27"
     inkscape:window-maximized="1"
     inkscape:current-layer="svg4" />
  <path
     fill="currentColor"
     d="M2.3 412.2c-4.5 7.6-2.1 17.5 5.5 22.2l105.9 65.2c7.7 4.7 17.7 2.4 22.4-5.3 0-.1.1-.2.1-.2 67.1-112.2 80.5-95.9 280.9-.7 8.1 3.9 17.8.4 21.7-7.7.1-.1.1-.3.2-.4l50.4-114.1c3.6-8.1-.1-17.6-8.1-21.3-22.2-10.4-66.2-31.2-105.9-50.3C127.5 179 44.6 345.3 2.3 412.2zm507.4-312.1c4.5-7.6 2.1-17.5-5.5-22.2L398.4 12.8c-7.5-5-17.6-3.1-22.6 4.4-.2.3-.4.6-.6 1-67.3 112.6-81.1 95.6-280.6.9-8.1-3.9-17.8-.4-21.7 7.7-.1.1-.1.3-.2.4L22.2 141.3c-3.6 8.1.1 17.6 8.1 21.3 22.2 10.4 66.3 31.2 106 50.4 248 120 330.8-45.4 373.4-112.9z"
     id="path2"
     style="fill:#ffffff;stroke:none" />
</svg>
